<?xml version="1.0" encoding="UTF-8" standalone="no"?>
<svg
   xmlns:dc="http://purl.org/dc/elements/1.1/"
   xmlns:cc="http://creativecommons.org/ns#"
   xmlns:rdf="http://www.w3.org/1999/02/22-rdf-syntax-ns#"
   xmlns:svg="http://www.w3.org/2000/svg"
   xmlns="http://www.w3.org/2000/svg"
   id="svg1232"
   version="1.1"
   viewBox="0 0 176.50598 55.128197"
   height="55.128197mm"
   width="176.50598mm">
  <defs
     id="defs1226">
    <clipPath
       id="clipPath999"
       clipPathUnits="userSpaceOnUse">
      <path
         id="path997"
         d="M 0,0 H 595.276 V 841.89 H 0 Z" />
    </clipPath>
    <clipPath
       id="clipPath839"
       clipPathUnits="userSpaceOnUse">
      <path
         id="path837"
         d="M 0,0 H 595.276 V 841.89 H 0 Z" />
    </clipPath>
  </defs>
  <metadata
     id="metadata1229">
    <rdf:RDF>
      <cc:Work
         rdf:about="">
        <dc:format>image/svg+xml</dc:format>
        <dc:type
           rdf:resource="http://purl.org/dc/dcmitype/StillImage" />
        <dc:title></dc:title>
      </cc:Work>
    </rdf:RDF>
  </metadata>
  <g
     transform="translate(-5.4851116,-137.14423)"
     id="layer1">
    <g
       transform="matrix(0.35277777,0,0,-0.35277777,163.02282,180.84742)"
       id="g825">
      <path
         id="path827"
         style="fill:#4c4c4c;fill-opacity:1;fill-rule:nonzero;stroke:none"
         d="M 0,0 -13.353,38.34 -68.82,43.747 -102.883,-2.221 -1.292,-3.82 Z" />
    </g>
    <g
       transform="matrix(0.35277777,0,0,-0.35277777,54.45835,177.89054)"
       id="g829">
      <path
         id="path831"
         style="fill:#4c4c4c;fill-opacity:1;fill-rule:nonzero;stroke:none"
         d="m 0,0 -13.353,38.341 -55.466,5.407 -33.473,-28.982 101,-18.586 z" />
    </g>
    <g
       id="g833"
       transform="matrix(0.35277777,0,0,-0.35277777,-24.90627,198.64427)">
      <g
         clip-path="url(#clipPath839)"
         id="g835">
        <g
           transform="translate(87.2716,89.6875)"
           id="g841">
          <path
             id="path843"
             style="fill:#791524;fill-opacity:1;fill-rule:nonzero;stroke:none"
             d="m 0,0 c -1.339,-38.516 47.173,-39.967 47.173,-39.967 0,0 0.354,10.164 0.513,14.742 0.248,7.132 9.765,34.415 42.101,33.291 35.428,-1.232 43.137,-32.804 42.77,-43.385 -0.166,-4.755 -0.522,-14.978 -0.522,-14.978 l 218.606,-9.089 c 0,0 0.204,5.874 0.335,9.648 0.257,7.394 6.13,48.224 45.71,46.848 41.741,-1.451 41.288,-38.288 40.922,-48.868 -0.156,-4.455 -0.387,-11.098 -0.387,-11.098 l 41.014,0.837 c 0,0 15.484,0.494 15.892,12.222 l 0.298,8.561 c 0,0 2.8,2.917 2.856,4.502 0.055,1.587 4.049,11.452 0.378,15.389 -3.672,3.937 -10.462,23.691 -22.176,29.178 -11.712,5.485 -67.872,19.176 -93.676,21.026 0,0 -83.081,52.403 -155.6,54.924 0,0 -90.638,6.326 -125.035,-15.33 0,0 -35.363,-17.287 -74.37,-16.459 -3.982,0.085 -11.74,0.092 -12.104,-10.369 0,0 -5.932,-6.308 -6.472,-21.841 0,0 -8.904,-3.609 -9.166,-11.124 C -1.241,-0.016 0.076,2.176 0,0" />
        </g>
        <g
           transform="translate(367.0786,164.098)"
           id="g845">
          <path
             id="path847"
             style="fill:#ffffff;fill-opacity:1;fill-rule:nonzero;stroke:none"
             d="m 0,0 c -4.112,0.988 0.121,-5.743 0.121,-5.743 0,0 61.485,-23.51 90.693,-40.474 2.487,-1.445 11.493,0.558 11.493,0.558 0,0 -60.934,35.723 -102.307,45.659" />
        </g>
        <g
           transform="translate(367.0786,164.098)"
           id="g849">
          <path
             id="path851"
             style="fill:none;stroke:#704a24;stroke-width:0.93199998;stroke-linecap:butt;stroke-linejoin:miter;stroke-miterlimit:10;stroke-dasharray:none;stroke-opacity:1"
             d="m 0,0 c -4.112,0.988 0.121,-5.743 0.121,-5.743 0,0 61.485,-23.51 90.693,-40.474 2.487,-1.445 11.493,0.558 11.493,0.558 0,0 -60.934,35.723 -102.307,45.659 z" />
        </g>
        <g
           transform="translate(101.9107,131.426)"
           id="g853">
          <path
             id="path855"
             style="fill:#666666;fill-opacity:1;fill-rule:nonzero;stroke:#000000;stroke-width:0.93199998;stroke-linecap:round;stroke-linejoin:round;stroke-miterlimit:10;stroke-dasharray:none;stroke-opacity:1"
             d="m 0,0 c 0,0 16.036,-8.251 20.665,-8.573 0,0 -4.852,-15.375 -17.481,-14.936 l -9.711,1.455" />
        </g>
        <g
           transform="translate(122.5752,122.9355)"
           id="g857">
          <path
             id="path859"
             style="fill:#000000;fill-opacity:1;fill-rule:nonzero;stroke:#ffffff;stroke-width:0.93199998;stroke-linecap:round;stroke-linejoin:round;stroke-miterlimit:10;stroke-dasharray:none;stroke-opacity:1"
             d="M 0,0 C 0,0 -8.201,-6.021 -25.188,-1.458" />
        </g>
        <g
           transform="translate(135.6901,68.8391)"
           id="g861">
          <path
             id="path863"
             style="fill:none;stroke:#ffffff;stroke-width:0.93199998;stroke-linecap:round;stroke-linejoin:round;stroke-miterlimit:10;stroke-dasharray:none;stroke-opacity:1"
             d="M 0,0 C 0,0 -32.977,-0.296 -46.208,5.925" />
        </g>
        <g
           transform="translate(87.5868,87.3745)"
           id="g865">
          <path
             id="path867"
             style="fill:#ffffff;fill-opacity:1;fill-rule:nonzero;stroke:none"
             d="m 0,0 c 0,0 24.182,-2.904 31.475,-3.158 7.291,-0.253 9.32,7.929 9.32,7.929 L -1.438,8.779" />
        </g>
        <g
           transform="translate(105.109,139.3507)"
           id="g869">
          <path
             id="path871"
             style="fill:none;stroke:#ffffff;stroke-width:0.93199998;stroke-linecap:round;stroke-linejoin:round;stroke-miterlimit:10;stroke-dasharray:none;stroke-opacity:1"
             d="M 0,0 C 0,0 31.219,-13.839 96.759,-16.145" />
        </g>
        <g
           transform="translate(539.4297,60.2616)"
           id="g873">
          <path
             id="path875"
             style="fill:#ffffff;fill-opacity:1;fill-rule:nonzero;stroke:none"
             d="M 0,0 C -1.575,4.347 18.781,-0.091 32.534,1.961 37.526,2.704 39.787,1.448 40.745,-4.968 40.745,-4.968 3.097,-8.533 0,0" />
        </g>
        <g
           transform="translate(569.3066,72.1021)"
           id="g877">
          <path
             id="path879"
             style="fill:#666666;fill-opacity:1;fill-rule:nonzero;stroke:none"
             d="M 0,0 C 0,0 -0.497,24.21 -41.92,19.763 -41.92,19.763 -40.321,1.41 0,0" />
        </g>
        <g
           transform="translate(569.3066,72.1021)"
           id="g881">
          <path
             id="path883"
             style="fill:none;stroke:#000000;stroke-width:0.93199998;stroke-linecap:round;stroke-linejoin:round;stroke-miterlimit:10;stroke-dasharray:none;stroke-opacity:1"
             d="M 0,0 C 0,0 -0.497,24.21 -41.92,19.763 -41.92,19.763 -40.321,1.41 0,0 Z" />
        </g>
        <g
           transform="translate(569.3066,72.1021)"
           id="g885">
          <path
             id="path887"
             style="fill:#ffffff;fill-opacity:1;fill-rule:nonzero;stroke:#000000;stroke-width:0.93199998;stroke-linecap:round;stroke-linejoin:round;stroke-miterlimit:10;stroke-dasharray:none;stroke-opacity:1"
             d="M 0,0 C 0,0 -20.283,4.082 -41.92,19.769" />
        </g>
        <g
           transform="translate(520.8081,92.1972)"
           id="g889">
          <path
             id="path891"
             style="fill:none;stroke:#ffffff;stroke-width:0.93199998;stroke-linecap:round;stroke-linejoin:round;stroke-miterlimit:10;stroke-dasharray:none;stroke-opacity:1"
             d="M 0,0 C 0,0 -40.028,12.056 -70.208,14.087" />
        </g>
        <g
           transform="translate(291.5739,162.0228)"
           id="g893">
          <path
             id="path895"
             style="fill:#ffffff;fill-opacity:1;fill-rule:nonzero;stroke:none"
             d="m 0,0 8.475,-39.266 c 0,0 -33.26,0.957 -60.539,3.742 -28.736,2.934 -30.762,7.587 -32.092,15.905 -1.959,12.209 6.935,14.676 13.638,15.713 C -50.933,-0.874 0,0 0,0" />
        </g>
        <g
           transform="translate(410.1634,112.7384)"
           id="g897">
          <path
             id="path899"
             style="fill:#ffffff;fill-opacity:1;fill-rule:nonzero;stroke:none"
             d="m 0,0 22.615,-2.136 c 0,0 -70.284,50.86 -128.375,50.659 L -94.44,8.92 -21.995,2.034" />
        </g>
        <g
           transform="translate(402.2025,107.524)"
           id="g901">
          <path
             id="path903"
             style="fill:#666666;fill-opacity:1;fill-rule:nonzero;stroke:#000000;stroke-width:0.93199998;stroke-linecap:round;stroke-linejoin:round;stroke-miterlimit:10;stroke-dasharray:none;stroke-opacity:1"
             d="m 0,0 c 0,0 6.021,-6.388 1.2,-13.851 0,0 9.477,3.491 12.82,15.641 0,0 -5.977,0.687 -10.713,9.362 -4.736,8.674 -13.975,9.233 -16.026,4.951 -1.638,-3.42 -5.15,-15.713 9.671,-16.318 3.324,-0.137 9.437,-0.007 6.355,11.367" />
        </g>
        <g
           transform="translate(405.5714,109.8532)"
           id="g905">
          <path
             id="path907"
             style="fill:none;stroke:#ffffff;stroke-width:0.93199998;stroke-linecap:round;stroke-linejoin:round;stroke-miterlimit:10;stroke-dasharray:none;stroke-opacity:1"
             d="M 0,0 C 0,0 -3.307,13.961 -13.73,15.851" />
        </g>
        <g
           transform="translate(325.966,104.0602)"
           id="g909">
          <path
             id="path911"
             style="fill:#ffffff;fill-opacity:1;fill-rule:nonzero;stroke:none"
             d="m 0,0 c -0.18,-1.662 0.726,-3.13 2.025,-3.276 l 10.808,-1.219 c 1.299,-0.147 2.499,1.082 2.68,2.745 0.18,1.662 -0.725,3.128 -2.025,3.274 L 2.681,2.744 C 1.38,2.891 0.18,1.663 0,0" />
        </g>
        <g
           transform="translate(325.966,104.0602)"
           id="g913">
          <path
             id="path915"
             style="fill:none;stroke:#000000;stroke-width:0.93199998;stroke-linecap:round;stroke-linejoin:round;stroke-miterlimit:10;stroke-dasharray:none;stroke-opacity:1"
             d="m 0,0 c -0.18,-1.662 0.726,-3.13 2.025,-3.276 l 10.808,-1.219 c 1.299,-0.147 2.499,1.082 2.68,2.745 0.18,1.662 -0.725,3.128 -2.025,3.274 L 2.681,2.744 C 1.38,2.891 0.18,1.663 0,0 Z" />
        </g>
        <g
           transform="translate(218.7606,112.3516)"
           id="g917">
          <path
             id="path919"
             style="fill:#ffffff;fill-opacity:1;fill-rule:nonzero;stroke:none"
             d="m 0,0 c -0.181,-1.664 0.621,-3.119 1.792,-3.252 l 9.746,-1.099 c 1.169,-0.13 2.265,1.11 2.448,2.773 0.182,1.665 -0.621,3.12 -1.791,3.252 L 2.452,2.772 C 1.277,2.904 0.183,1.664 0,0" />
        </g>
        <g
           transform="translate(218.7606,112.3516)"
           id="g921">
          <path
             id="path923"
             style="fill:none;stroke:#000000;stroke-width:0.93199998;stroke-linecap:round;stroke-linejoin:round;stroke-miterlimit:10;stroke-dasharray:none;stroke-opacity:1"
             d="m 0,0 c -0.181,-1.664 0.621,-3.119 1.792,-3.252 l 9.746,-1.099 c 1.169,-0.13 2.265,1.11 2.448,2.773 0.182,1.665 -0.621,3.12 -1.791,3.252 L 2.452,2.772 C 1.277,2.904 0.183,1.664 0,0 Z" />
        </g>
        <g
           transform="translate(520.8679,48.5158)"
           id="g925">
          <path
             id="path927"
             style="fill:#000000;fill-opacity:1;fill-rule:nonzero;stroke:none"
             d="m 0,0 c -0.719,-20.686 -17.565,-29.06 -38.247,-28.341 -20.679,0.719 -37.363,10.26 -36.644,30.945 0.719,20.683 18.065,36.865 38.744,36.146 C -15.464,38.031 0.72,20.684 0,0" />
        </g>
        <g
           transform="translate(508.3795,45.4064)"
           id="g929">
          <path
             id="path931"
             style="fill:#cccccc;fill-opacity:1;fill-rule:nonzero;stroke:none"
             d="m 0,0 c -0.48,-13.786 -12.041,-24.571 -25.829,-24.093 -13.78,0.48 -24.566,12.043 -24.087,25.829 0.48,13.783 12.042,24.57 25.823,24.09 C -10.305,25.347 0.479,13.783 0,0" />
        </g>
        <g
           transform="translate(508.3795,45.4064)"
           id="g933">
          <path
             id="path935"
             style="fill:none;stroke:#000000;stroke-width:0.93199998;stroke-linecap:round;stroke-linejoin:round;stroke-miterlimit:10;stroke-dasharray:none;stroke-opacity:1"
             d="m 0,0 c -0.48,-13.786 -12.041,-24.571 -25.829,-24.093 -13.78,0.48 -24.566,12.043 -24.087,25.829 0.48,13.783 12.042,24.57 25.823,24.09 C -10.305,25.347 0.479,13.783 0,0 Z" />
        </g>
        <g
           transform="translate(505.1532,45.5196)"
           id="g937">
          <path
             id="path939"
             style="fill:#666666;fill-opacity:1;fill-rule:nonzero;stroke:none"
             d="m 0,0 c -0.417,-12.001 -10.485,-21.397 -22.49,-20.98 -12.001,0.418 -21.392,10.49 -20.974,22.491 0.416,12.001 10.484,21.394 22.486,20.977 C -8.974,22.071 0.418,12 0,0" />
        </g>
        <g
           transform="translate(505.1532,45.5196)"
           id="g941">
          <path
             id="path943"
             style="fill:none;stroke:#000000;stroke-width:0.93199998;stroke-linecap:round;stroke-linejoin:round;stroke-miterlimit:10;stroke-dasharray:none;stroke-opacity:1"
             d="m 0,0 c -0.417,-12.001 -10.485,-21.397 -22.49,-20.98 -12.001,0.418 -21.392,10.49 -20.974,22.491 0.416,12.001 10.484,21.394 22.486,20.977 C -8.974,22.071 0.418,12 0,0 Z" />
        </g>
        <g
           transform="translate(494.757,45.88)"
           id="g945">
          <path
             id="path947"
             style="fill:#ffffff;fill-opacity:1;fill-rule:nonzero;stroke:none"
             d="m 0,0 c -0.217,-6.261 -5.471,-11.158 -11.733,-10.939 -6.259,0.217 -11.155,5.465 -10.938,11.728 0.218,6.262 5.467,11.156 11.726,10.938 C -4.684,11.51 0.218,6.262 0,0" />
        </g>
        <g
           transform="translate(213.7893,55.6498)"
           id="g949">
          <path
             id="path951"
             style="fill:#000000;fill-opacity:1;fill-rule:nonzero;stroke:none"
             d="m 0,0 c -0.722,-20.747 -18.124,-36.975 -38.867,-36.253 -20.742,0.721 -36.971,18.119 -36.249,38.866 0.721,20.746 18.119,36.976 38.861,36.255 C -15.511,38.147 0.721,20.746 0,0" />
        </g>
        <g
           transform="translate(213.7893,55.6498)"
           id="g953">
          <path
             id="path955"
             style="fill:none;stroke:#000000;stroke-width:0.93199998;stroke-linecap:round;stroke-linejoin:round;stroke-miterlimit:10;stroke-dasharray:none;stroke-opacity:1"
             d="m 0,0 c -0.722,-20.747 -18.124,-36.975 -38.867,-36.253 -20.742,0.721 -36.971,18.119 -36.249,38.866 0.721,20.746 18.119,36.976 38.861,36.255 C -15.511,38.147 0.721,20.746 0,0 Z" />
        </g>
        <g
           transform="translate(201.1876,56.0888)"
           id="g957">
          <path
             id="path959"
             style="fill:#cccccc;fill-opacity:1;fill-rule:nonzero;stroke:none"
             d="m 0,0 c -0.479,-13.786 -12.04,-24.572 -25.827,-24.093 -13.783,0.48 -24.568,12.043 -24.089,25.828 0.48,13.784 12.043,24.57 25.825,24.091 C -10.304,25.347 0.48,13.783 0,0" />
        </g>
        <g
           transform="translate(201.1876,56.0888)"
           id="g961">
          <path
             id="path963"
             style="fill:none;stroke:#000000;stroke-width:0.93199998;stroke-linecap:round;stroke-linejoin:round;stroke-miterlimit:10;stroke-dasharray:none;stroke-opacity:1"
             d="m 0,0 c -0.479,-13.786 -12.04,-24.572 -25.827,-24.093 -13.783,0.48 -24.568,12.043 -24.089,25.828 0.48,13.784 12.043,24.57 25.825,24.091 C -10.304,25.347 0.48,13.783 0,0 Z" />
        </g>
        <g
           transform="translate(197.9626,56.2009)"
           id="g965">
          <path
             id="path967"
             style="fill:#666666;fill-opacity:1;fill-rule:nonzero;stroke:none"
             d="m 0,0 c -0.416,-12 -10.485,-21.396 -22.49,-20.979 -12,0.418 -21.392,10.49 -20.974,22.49 0.417,12.002 10.484,21.395 22.486,20.978 C -8.973,22.071 0.417,12.002 0,0" />
        </g>
        <g
           transform="translate(197.9626,56.2009)"
           id="g969">
          <path
             id="path971"
             style="fill:none;stroke:#000000;stroke-width:0.93199998;stroke-linecap:round;stroke-linejoin:round;stroke-miterlimit:10;stroke-dasharray:none;stroke-opacity:1"
             d="m 0,0 c -0.416,-12 -10.485,-21.396 -22.49,-20.979 -12,0.418 -21.392,10.49 -20.974,22.49 0.417,12.002 10.484,21.395 22.486,20.978 C -8.973,22.071 0.417,12.002 0,0 Z" />
        </g>
        <g
           transform="translate(187.679,56.5579)"
           id="g973">
          <path
             id="path975"
             style="fill:#ffffff;fill-opacity:1;fill-rule:nonzero;stroke:none"
             d="m 0,0 c -0.22,-6.324 -5.525,-11.269 -11.849,-11.049 -6.321,0.22 -11.269,5.521 -11.049,11.846 0.22,6.324 5.524,11.267 11.845,11.048 C -4.729,11.625 0.22,6.325 0,0" />
        </g>
        <g
           transform="translate(187.679,56.5579)"
           id="g977">
          <path
             id="path979"
             style="fill:none;stroke:#000000;stroke-width:0.93199998;stroke-linecap:round;stroke-linejoin:round;stroke-miterlimit:10;stroke-dasharray:none;stroke-opacity:1"
             d="m 0,0 c -0.22,-6.324 -5.525,-11.269 -11.849,-11.049 -6.321,0.22 -11.269,5.521 -11.049,11.846 0.22,6.324 5.524,11.267 11.845,11.048 C -4.729,11.625 0.22,6.325 0,0 Z" />
        </g>
      </g>
    </g>
    <g
       transform="matrix(0.35277777,0,0,-0.35277777,130.17057,181.81844)"
       id="g981">
      <path
         id="path983"
         style="fill:none;stroke:#000000;stroke-width:0.93199998;stroke-linecap:round;stroke-linejoin:round;stroke-miterlimit:10;stroke-dasharray:none;stroke-opacity:1"
         d="m 0,0 6.456,-0.227 m -304.376,23.851 -5.235,0.183 m 83.77,-15.913 -6.588,0.231 M 85.338,-0.78 81.662,-0.651" />
    </g>
    <g
       transform="matrix(0.35277777,0,0,-0.35277777,146.83138,184.64408)"
       id="g985">
      <path
         id="path987"
         style="fill:#000000;fill-opacity:1;fill-rule:nonzero;stroke:none"
         d="m 0,0 3.775,6.04 -3.346,6.289 -7.118,0.248 -3.774,-6.042 3.344,-6.287 z" />
    </g>
    <g
       transform="matrix(0.35277777,0,0,-0.35277777,38.43176,180.87477)"
       id="g989">
      <path
         id="path991"
         style="fill:#000000;fill-opacity:1;fill-rule:nonzero;stroke:none"
         d="m 0,0 3.775,6.041 -3.346,6.288 -7.118,0.248 -3.774,-6.041 3.345,-6.289 z" />
    </g>
    <g
       id="g993"
       transform="matrix(0.35277777,0,0,-0.35277777,-24.90627,198.64427)">
      <g
         clip-path="url(#clipPath999)"
         id="g995">
        <g
           transform="translate(447.1654,41.3858)"
           id="g1001">
          <path
             id="path1003"
             style="fill:#000000;fill-opacity:1;fill-rule:nonzero;stroke:none"
             d="m 0,0 c 0,0 -0.587,0.171 -1.887,-3.841 -1.299,-4.013 -4.207,-17.535 0.328,-18.102 -2.331,-3.107 0,0 0,0 5.669,0 18.034,0.183 23.244,0 6.134,-0.212 8.378,0.415 14.74,0 1.016,0.563 -2.052,0 20.977,0 2.142,0.73 11.248,-2.606 11.338,0 6.236,0 1.775,16.388 2.126,18.116 C 70.747,-4.415 42.982,-22.937 35.291,-20.126 18.283,-18.425 0,0 0,0" />
        </g>
      </g>
    </g>
  </g>
</svg>
